<svg width="640" height="480" viewBox="0 0 640 480" fill="none" xmlns="http://www.w3.org/2000/svg">
  <defs>
    <linearGradient id="bg" x1="76" y1="62" x2="558" y2="414" gradientUnits="userSpaceOnUse">
      <stop stop-color="#0E131A"/>
      <stop offset="1" stop-color="#131D29"/>
    </linearGradient>
    <linearGradient id="mint" x1="120" y1="120" x2="505" y2="350" gradientUnits="userSpaceOnUse">
      <stop stop-color="#12F2A6"/>
      <stop offset="1" stop-color="#74F4FF"/>
    </linearGradient>
  </defs>
  <rect width="640" height="480" rx="32" fill="url(#bg)"/>
  <circle cx="496" cy="120" r="88" fill="#12F2A6" fill-opacity="0.10"/>
  <circle cx="112" cy="378" r="110" fill="#2A7FFF" fill-opacity="0.08"/>
  <rect x="132" y="122" width="376" height="236" rx="26" fill="#0B1118" stroke="#23303F" stroke-width="2"/>
  <rect x="182" y="170" width="178" height="132" rx="18" fill="#182432" stroke="url(#mint)" stroke-width="3"/>
  <path d="M182 196L271 227L360 196" stroke="#12F2A6" stroke-width="3" stroke-linecap="round" stroke-linejoin="round"/>
  <path d="M271 227V301" stroke="#12F2A6" stroke-width="3" stroke-linecap="round"/>
  <rect x="386" y="169" width="92" height="134" rx="18" fill="#0F1821" stroke="#253546" stroke-width="2"/>
  <rect x="403" y="189" width="58" height="18" rx="9" fill="#EAF2FF"/>
  <rect x="403" y="219" width="44" height="10" rx="5" fill="#A8B5C4"/>
  <rect x="403" y="240" width="50" height="10" rx="5" fill="#A8B5C4"/>
  <rect x="403" y="261" width="34" height="10" rx="5" fill="#A8B5C4"/>
  <path d="M128 364C206 300 286 291 371 300C458 308 520 278 556 224" stroke="url(#mint)" stroke-width="8" stroke-linecap="round"/>
  <circle cx="128" cy="364" r="12" fill="#12F2A6"/>
  <circle cx="556" cy="224" r="12" fill="#12F2A6"/>
  <path d="M544 224H570" stroke="#12F2A6" stroke-width="6" stroke-linecap="round"/>
  <path d="M558 212L570 224L558 236" stroke="#12F2A6" stroke-width="6" stroke-linecap="round" stroke-linejoin="round"/>
</svg>
